# xmcd
#
# Track frame offsets:
#	150
#	12750
#	23812
#	34537
#	42975
#	54000
#	65625
#	77700
#	88350
#	96975
#	105412
#	115162
#	124237
#	134250
#	144900
#	156525
#	168975
#	181387
#
# Disc length: 2564 seconds
#
# Revision: 0
# Processed by: cddbd v1.4PL0 Copyright (c) Steve Scherf et al.
# Submitted via: MusicWizard 6.0.0
#
DISCID=eb0a0212
DTITLE=Johnny Cash - Portrait
DYEAR=1991
DGENRE=Country
TTITLE0=Folsom Prison Blues
TTITLE1=Oh Lonesome Me
TTITLE2=I Heard That Lonesome Whistle
TTITLE3=Country Boy
TTITLE4=I Love You Because
TTITLE5=So Doggone Lonesome
TTITLE6=You're The Nearest Thing To Heaven
TTITLE7=Fools Hall Of Fame
TTITLE8=Guess Things Happen That Way
TTITLE9=I Forgot To Remember To Forget
TTITLE10=Story Of A Broken Heart
TTITLE11=Blue Train
TTITLE12=Get Rhythm
TTITLE13=Train Of Love
TTITLE14=Thanks A Lot
TTITLE15=I Walk The Line
TTITLE16=Give My Love To Rose
TTITLE17=Don't Make Me Go
EXTD=(c)1991 Bellaphon Germany\nupc 4003099912823\nRerelease of double-lp set
EXTT0=
EXTT1=
EXTT2=
EXTT3=
EXTT4=
EXTT5=
EXTT6=
EXTT7=
EXTT8=
EXTT9=
EXTT10=
EXTT11=
EXTT12=
EXTT13=
EXTT14=
EXTT15=
EXTT16=
EXTT17=
PLAYORDER=
